<svg id="Layer_1" data-name="Layer 1" xmlns="http://www.w3.org/2000/svg" viewBox="0 0 231.51 160.91"><title>my-car-rental-logo</title><path d="M272.09,447.27c2.47.56,4.94,1.13,7.42,1.64,2.83.58,5.67,1.18,8.52,1.66,5,.85,9.93,1.71,14.91,2.38,3,.41,6,.49,9,.67a15.3,15.3,0,0,0,2.18-.13,56.33,56.33,0,0,1-1.27-6.25c-.29-3.13-.38-6.29-.38-9.44a30.76,30.76,0,0,1,1.28-8.4,32.11,32.11,0,0,1,5.38-11.13A27.1,27.1,0,0,1,329.55,410a38.16,38.16,0,0,1,10.87-2.89c6.87-.88,13.66-.08,20.47.62a112.72,112.72,0,0,0,17,.93,37.2,37.2,0,0,0,12.71-2.73c1-.43,1.95-1,2.92-1.5l.63-.31.15.26c-1.63,1-3.2,2-4.88,2.85-6.14,3.08-12.74,3.56-19.43,3.15-5.62-.34-11.22-.95-16.84-1.28-4.87-.29-9.76-.4-14.55.74a26.35,26.35,0,0,0-10,4.61,27.73,27.73,0,0,0-6.64,7,22.87,22.87,0,0,0-2.52,5.28c-2.28,6.89-2.3,14-1.25,21.06.43,2.88,1.14,5.71,1.75,8.57a7.27,7.27,0,0,0,.46,1.13,1.2,1.2,0,0,1-.38.15,55.4,55.4,0,0,1-13.06.26c-3.91-.46-7.84-.82-11.73-1.45C295.25,456.49,279.8,454.4,272.09,447.27Z" transform="translate(-190.86 -315.61)" style="fill:#0e93f7;stroke:#0e93f7;stroke-miterlimit:10;stroke-width:1.5px;fill-rule:evenodd"/><path d="M325.22,443.2c.24,1.11.48,2.22.78,3.58l7.2-9c.21,1.41.19,2.79,1.35,4a9,9,0,0,1-.35-5.19c.56-2.3,1.52-4.37,3.72-5.52a7.76,7.76,0,0,1,2.16-.44,2.36,2.36,0,0,0-2.85-.28,8.09,8.09,0,0,0-3.6,5c-.06.19-.1.38-.2.78-.44-.64-.8-1.17-1.18-1.68s-.83-1-1.22-1.5c-1.18-1.55-2.37-3.1-3.5-4.69a1.33,1.33,0,0,1-.19-1.13c.75-1.56,1.6-3.07,2.49-4.75l7.85,7.59c1.82-5.15,3.63-10.24,5.46-15.4a6.76,6.76,0,0,1,5.39,2.8,17.1,17.1,0,0,1,3.36,8.94,35.67,35.67,0,0,1-6.45,23.54c-2.09,2.83-4.55,5.28-7.95,6.48a7.45,7.45,0,0,1-8.53-2c-2.5-2.75-3.36-6.14-3.72-9.72,0-.4-.07-.79-.09-1.18A.94.94,0,0,1,325.22,443.2Zm17.12-11.38c2.42,0,4.72,0,7,0,.18,0,.5-.33.52-.54a25,25,0,0,0,.21-3.45,20.13,20.13,0,0,0-1.68-8.2c-.44-.88-1-1.69-1.67-2.71Zm-8.5,21.87a1.6,1.6,0,0,1,.05.21c1.13-.32,2.25-.65,3.37-.94.53-.14.73-.39.63-.95-.48-2.77-.93-5.55-1.41-8.32-.12-.7-.61-.83-1.14-.35-2.38,2.2-4.77,4.41-7.13,6.65a.86.86,0,0,0-.07.85C329.62,452.6,331.4,453.83,333.84,453.69Zm7.7-3.7a29.43,29.43,0,0,0,7-11.95c-1.43.31-2.66.56-3.88.87-.21,0-.38.35-.51.57-.47.82-.7,2-1.4,2.42-1.72,1.08-1.41,2.58-1.33,4.11,0,.65,0,1.3.06,1.94S341.5,449.17,341.54,450ZM339.48,441a1.44,1.44,0,0,0,2.58-.25,13.25,13.25,0,0,0,1.33-3.15,2.2,2.2,0,0,0-.6-2.47C342.72,437.64,341.62,440.66,339.48,441Z" transform="translate(-190.86 -315.61)" style="fill:#0e93f7;stroke:#0e93f7;stroke-miterlimit:10;stroke-width:1.5px;fill-rule:evenodd"/><path d="M416.73,408.73c.67-1.05,1.39-2.06,2-3.14a10.22,10.22,0,0,0,1.54-4.4,5.34,5.34,0,0,0-2.07-4.49,20.86,20.86,0,0,0-6.95-3.8A67.26,67.26,0,0,0,400.38,390a142.32,142.32,0,0,0-16.85-2,323.46,323.46,0,0,0-33.1-.77,157.41,157.41,0,0,0-16.09,1.16,2.29,2.29,0,0,0-.58.11c-1.37.56-2.23,0-3-1.16a14,14,0,0,1-2.5-7.31,11.7,11.7,0,0,1,3.78-8.89,21.46,21.46,0,0,1,10-5.21,37.67,37.67,0,0,1,9.36-1.11,58.53,58.53,0,0,1,8.2.95,40.33,40.33,0,0,1,9.47,2.68,80.35,80.35,0,0,1,8.63,4.13c2.74,1.52,5.35,3.28,7.94,5.05,1.55,1.05,2.94,2.31,4.4,3.47.22.17.46.32.77.53l.4-2.19a1.6,1.6,0,0,1,2-1.46,21.63,21.63,0,0,1,7,2c.38.19.73.42,1.1.62,1.66.9,1.84,1.56.82,3.14-.24.38-.47.76-.72,1.14-.89,1.31-2.21,1.23-3.57,1.09,1.92-.16,2.42-1.7,3-3.12.11-.27-.23-.89-.53-1.09a14.53,14.53,0,0,0-5.73-2.33c-.69-.11-1.38-.27-2.08-.34a1.14,1.14,0,0,0-.77.18c-.7.55-.69,2.6,0,3.22q2.12,2,4.21,4c.09.08.12.21.07.42l-2.69-2c-2.29-1.75-4.52-3.59-6.88-5.23-2.7-1.89-5.45-3.73-8.31-5.37a66.89,66.89,0,0,0-7.06-3.33,36.28,36.28,0,0,0-8.68-2.38,42.88,42.88,0,0,0-13-.34,40.56,40.56,0,0,0-6.51,1.3c-3.36,1.07-6.54,2.57-8.72,5.54-2.43,3.33-2.2,6.82-.42,10.32.1.2.55.32.83.31,5-.26,10-.75,15-.78,8.08-.06,16.18,0,24.25.37,6.51.32,13,1.13,19.48,2a108.46,108.46,0,0,1,11.42,2.19,41.34,41.34,0,0,1,12.75,4.91,9.52,9.52,0,0,1,3.68,3.84,5.35,5.35,0,0,1,.22,4.11A14.61,14.61,0,0,1,416.73,408.73Z" transform="translate(-190.86 -315.61)" style="fill:#0e93f7;stroke:#0e93f7;stroke-miterlimit:10;stroke-width:1.5px;fill-rule:evenodd"/><path d="M349.06,447.08c.24-.65.49-1.39.78-2.11,2.47-6.12,4.06-12.41,3.45-19.07a14,14,0,0,0-6.37-11,25.77,25.77,0,0,0-3.65-1.67,2,2,0,0,1-.62-.35,10.9,10.9,0,0,1,9.58,3.13,15.35,15.35,0,0,1,3.64,7.08,26.62,26.62,0,0,1,.05,12.61c-.06.25-.08.5-.12.76a1,1,0,0,0,.07.2c1.51-1,3-2.08,4.5-3.08,2.3-1.54,4.57-3.15,6.95-4.56q4.77-2.83,9.68-5.41a80.14,80.14,0,0,1,12.25-5.32c2-.65,4-1.33,6-2,.25-1.56.51-3.25.79-4.93a27.55,27.55,0,0,1,3.2-9.69,9.39,9.39,0,0,1,5.36-4.63c2-.6,3.87-.07,5.83.93-1.13-.18-2.06-.41-3-.48a6.34,6.34,0,0,0-5.64,2.77,20,20,0,0,0-3.23,7,30.92,30.92,0,0,0-1.37,9.4c0,.27-.35.67-.64.81-1,.51-2.11.91-3.15,1.4-3.31,1.57-6.67,3.08-9.92,4.77-3.57,1.87-7.14,3.76-10.54,5.92q-6.81,4.32-13.32,9.09C356,441.25,352.59,444.23,349.06,447.08Z" transform="translate(-190.86 -315.61)" style="fill:#0e93f7;stroke:#0e93f7;stroke-miterlimit:10;stroke-width:1.5px;fill-rule:evenodd"/><path d="M321.19,467l8.57-5.24-.13-.22-19.82,11.27-.12-.18q7.63-4.91,15.27-9.82l-.1-.19-24.62,12.93-.09-.17,4.62-2.67c2.79-1.61,5.57-3.22,8.37-4.81,2.22-1.26,4.45-2.49,6.69-3.72l6.4-3.52c1.23-.67,2.47-1.32,3.67-2a2.73,2.73,0,0,1,2.32,0,10.54,10.54,0,0,0,7.88-1.19c3.69-2,6.29-5,8.58-8.44a6.3,6.3,0,0,1,2.38-1.61q5.28-2.79,10.59-5.5c1.74-.89,3.53-1.7,5.28-2.58,2.67-1.35,5.32-2.74,8-4.09,2.2-1.11,4.42-2.18,6.64-3.27,2.87-1.4,5.73-2.82,8.61-4.2,2.27-1.1,4.56-2.16,6.84-3.24,2-.95,4-1.95,6.1-2.83a2.87,2.87,0,0,1,1.62.12C379.09,435.41,354.07,450,329.3,465l8.07-5.78-.1-.16-16,8.08Z" transform="translate(-190.86 -315.61)" style="fill:#0e93f7;stroke:#0e93f7;stroke-miterlimit:10;stroke-width:1.5px;fill-rule:evenodd"/><path d="M242.52,410.38c1.7.18,3.4.37,5.11.54,7.19.76,14.39,1.46,21.58,2.29,4.3.5,8.57,1.25,12.86,1.82,4.77.64,9.52,1.48,14.36,1.24a37,37,0,0,0,10.8-2.12,69.67,69.67,0,0,0,11.65-5.59,40.45,40.45,0,0,1,3.63-1.93,14.88,14.88,0,0,1-1.3,1.08c-3.21,2.14-6.4,4.32-9.66,6.38a31.14,31.14,0,0,1-9.86,4,32.13,32.13,0,0,1-9.07.7,145.14,145.14,0,0,1-16.22-2.14c-4.32-.75-8.65-1.47-13-2.23-3-.53-6-1.1-9-1.66l-8-1.5-3.15-.56c-.27-.05-.52-.14-.78-.21A.36.36,0,0,1,242.52,410.38Z" transform="translate(-190.86 -315.61)" style="fill:#0e93f7;stroke:#0e93f7;stroke-miterlimit:10;stroke-width:1.5px;fill-rule:evenodd"/><path d="M306.25,406.16c-6.5-1-12.95-2-19.52-1.08,1.8-.58,8.09-1.57,19.87.15.76-1,.53-1.37-1.18-1.69a42.71,42.71,0,0,0-5.52-.7c-3.34-.21-6.7-.35-10-.41-1.45,0-2.9.21-4.36.24a45.1,45.1,0,0,1,10.75-.88c3.62.18,7.23.51,11.14.79-.42-.41-.65-.82-1-.92a12.39,12.39,0,0,0-3.09-.72q-6.79-.3-13.59-.38a39.36,39.36,0,0,0-4.45.41,4.13,4.13,0,0,1-.93,0,43.44,43.44,0,0,1,8.79-1.19,93.19,93.19,0,0,1,16.53.73,7.23,7.23,0,0,1,1.6.5,1.72,1.72,0,0,1,.91,2.07,11.42,11.42,0,0,1-4.52,7.13,17.2,17.2,0,0,1-9.33,3,49.2,49.2,0,0,1-14.41-1.2c-2.38-.54-4.76-1.08-7.13-1.8,1.8.11,3.61.16,5.41.36,3.75.41,7.48,1,11.23,1.34a15.86,15.86,0,0,0,7.72-1A9.34,9.34,0,0,0,306.25,406.16Z" transform="translate(-190.86 -315.61)" style="fill:#0e93f7;stroke:#0e93f7;stroke-miterlimit:10;stroke-width:1.5px;fill-rule:evenodd"/><path d="M405.48,406.83c.59-3,1.15-5.72,1.71-8.51,1.95,0,3.06,1.17,3.87,2.69a14.52,14.52,0,0,1,1.36,7.63,18,18,0,0,1-2.05,7.84,7.7,7.7,0,0,1-3.79,3.9,3.35,3.35,0,0,1-4-.93,9.27,9.27,0,0,1-2-4.22,4,4,0,0,1,.31.37c.06.09.11.19.23.4l2.7-4.76.48,1.22c0-2.25-.29-4.44,2.2-5.44-1-.52-1.4-.12-2.73,3.17-1.08-1.22-2.13-2.41-3.16-3.62a.84.84,0,0,1-.14-.67c.21-.83.47-1.65.76-2.64Zm5.9.29c.34-2.29-.88-6.75-2.35-7.48-.42,2.65-.83,5.26-1.25,7.94Zm-5.74,6.53c-.26.15-.38.18-.44.26-.93,1.18-1.87,2.36-2.76,3.57a.85.85,0,0,0,.12.79,3.43,3.43,0,0,0,3.91.44c.17-.12.39-.42.35-.58C406.46,416.67,406.06,415.22,405.64,413.65Zm2.84,3.24a15.42,15.42,0,0,0,2.67-6.48,10.07,10.07,0,0,1-1.25.46c-1.33.29-.8,2-1.85,2.47-.09,0-.11.36-.08.53C408.11,414.79,408.28,415.7,408.48,416.89ZM407,412.54l.15.25a2.76,2.76,0,0,0,.8-.42,2.69,2.69,0,0,0,.19-3.12A3.49,3.49,0,0,1,407,412.54Z" transform="translate(-190.86 -315.61)" style="fill:#0e93f7;stroke:#0e93f7;stroke-miterlimit:10;stroke-width:1.5px;fill-rule:evenodd"/><path d="M263.39,378.38c2.27-1.52,4.48-3.15,6.82-4.54a79.32,79.32,0,0,1,7.82-4.06,74.33,74.33,0,0,1,7.28-2.64,90.5,90.5,0,0,1,17.3-3.61,139,139,0,0,1,21.78-.81c5.49.18,11,.57,16.45.95,3.11.22,6.21.62,9.31,1-2.36-.12-4.72-.31-7.09-.34-8.48-.08-17-.27-25.44-.11a104.43,104.43,0,0,0-16.81,1.6c-4.5.82-9,1.53-13.48,2.62a97,97,0,0,0-10.48,3.4,71.07,71.07,0,0,0-7.52,3.34c-2,1-3.86,2.26-5.78,3.4Z" transform="translate(-190.86 -315.61)" style="fill:#0e93f7;stroke:#0e93f7;stroke-miterlimit:10;stroke-width:1.5px;fill-rule:evenodd"/><path d="M410.3,418.67c1.61-1.41,3.78-1.71,5.54-2.82l.12.23-5.5,2.81Z" transform="translate(-190.86 -315.61)" style="fill:#0e93f7;stroke:#0e93f7;stroke-miterlimit:10;stroke-width:1.5px;fill-rule:evenodd"/><g style="opacity:0.5"><path d="M254.1,457.38s-28.46,3.29-42.44-4.42c-8-3.62-13-8.84-15.19-15.12l2.9,7.46,1,2.22c2.49,5.4,6.46,9.12,13.63,12.35C214,459.87,231.12,466.93,254.1,457.38Z" transform="translate(-190.86 -315.61)" style="fill:#fff"/><path d="M242.87,417.86s-19.84,2.35-36.51-6.51c-11.43-5.16-15.88-14-14-24.55-.4,3-1,6.92-1.22,9.9l0,.48c-.68,9.68,4.14,17.74,15,22.63C206.09,419.81,225.38,427.52,242.87,417.86Z" transform="translate(-190.86 -315.61)" style="fill:#fff"/><path d="M270.27,442.14s-36.8,10.17-62.25-2.58c-9.35-4.22-14.52-10.66-15.78-18.43l1.36,6.76.84,3.33c1.86,6.86,7,12.56,15.53,16.42C210,447.64,235,460.41,270.27,442.14Z" transform="translate(-190.86 -315.61)" style="fill:#fff"/><path d="M301.94,417.65" transform="translate(-190.86 -315.61)" style="fill:#fff"/><path d="M253.81,428.64s-28.17,6.45-47.55-3.1c-10.48-4.72-15.47-12.36-15.4-21.54.11,3,.21,7.09.47,10.12.76,8.38,5.89,15.32,15.75,19.77C207.08,433.89,224.08,441.88,253.81,428.64Z" transform="translate(-190.86 -315.61)" style="fill:#fff"/></g><path d="M199.37,445.3l-2.9-7.46c-5.83-17,9.11-41.67,41.32-63.63,28.58-19.47,63.75-32,93.06-34.78,5.1,0,7,4.82,5.31,6.6a4.2,4.2,0,0,1-2,.85c-29.37,2.78-64.61,15.34-93.25,34.86-33.59,22.89-48.44,48.77-40.6,65.78l-1-2.22" transform="translate(-190.86 -315.61)" style="fill:#fff"/><path d="M191.15,396.7c.33-3,.74-6.95,1.22-9.9,2.42-13.48,15.18-29.72,36.92-44.53A190.15,190.15,0,0,1,277,319c4.34-1.12,6.45,1,5.17,2.88a4.82,4.82,0,0,1-2.38,1.58A198.45,198.45,0,0,0,230,347.73c-24.3,16.57-37.86,34.84-38.89,49.45l0-.48" transform="translate(-190.86 -315.61)" style="fill:#fff"/><path d="M285.64,318.77c-.36-.73-.26-2.16,2.44-2.94,3.94-.88,6.95,1.14,5.66,3-1.52,2.21-7,2.15-8.1-.08" transform="translate(-190.86 -315.61)" style="fill:#fff"/><path d="M193.6,427.89l-1.36-6.76c-2.66-16.38,12-38.7,41.37-58.68a209.16,209.16,0,0,1,39.81-21.06c5.1-1.59,6.88,2,5.57,4.39a5.34,5.34,0,0,1-2.62,2.2A212.06,212.06,0,0,0,236,369.35c-31.16,21.24-46.06,45.06-41.51,61.87l-.84-3.33" transform="translate(-190.86 -315.61)" style="fill:#fff"/><path d="M208.4,461.86c-1.44-2.34-3.44-5.44-4.77-7.85-8.59-15.66,3.34-39.6,32.44-61.66,4-2.48,6.69,1.21,5.82,4.6a5.57,5.57,0,0,1-1.94,3C210,422.64,198.44,447.35,209,462.76l-.61-.9" transform="translate(-190.86 -315.61)" style="fill:#fff"/><path d="M247.25,389a5.36,5.36,0,0,1,2.35-6.1c3.86-2.18,7.1.9,6.22,4.48-1,4.1-6.13,5.61-8.17,2.42a5,5,0,0,1-.4-.8" transform="translate(-190.86 -315.61)" style="fill:#fff"/><path d="M190.86,404c.11-15.22,14.09-34.7,39.9-52.29a191.22,191.22,0,0,1,19-11.37c4.19-1.84,5.71.73,5,2.82a6.6,6.6,0,0,1-2.88,3.06,197.39,197.39,0,0,0-19.58,11.71c-27.94,19-42.4,40.22-40.95,56.19-.17-3-.47-7.08-.47-10.12" transform="translate(-190.86 -315.61)" style="fill:#fff"/><path d="M260.85,338c-.25-1,.13-3,3.06-4.37,4-1.55,6.61.69,5.32,3.32-1.58,3.22-7.15,4.13-8.29,1.36a2.8,2.8,0,0,1-.09-.31" transform="translate(-190.86 -315.61)" style="fill:#fff"/><path d="M276,331.78c-.3-.93,0-2.81,2.9-3.94,4-1.21,6.87,1.07,5.7,3.47-1.51,3.1-7.62,3.43-8.6.47" transform="translate(-190.86 -315.61)" style="fill:#fff"/><path d="M291.18,326.89c-.38-.9-.25-2.65,2.64-3.49,4.1-.89,7.27,1.74,5.88,3.92-1.65,2.58-7.38,2.29-8.52-.43" transform="translate(-190.86 -315.61)" style="fill:#fff"/><path d="M284.8,341.13c-.35-1.09-.14-3.25,2.93-4.37,4.4-1.22,7.47,1.89,5.86,4.68-1.82,3.16-7.73,2.95-8.79-.31" transform="translate(-190.86 -315.61)" style="fill:#fff"/><path d="M298.65,336.88c-.39-1.07-.25-3.12,2.77-4,4.34-.88,7.5,2.32,6,4.88-1.71,2.9-7.6,2.31-8.76-.89" transform="translate(-190.86 -315.61)" style="fill:#fff"/></svg>